<svg width="24" height="22" viewBox="0 0 24 22" fill="none" xmlns="http://www.w3.org/2000/svg">
<g id="Home Icon">
<path id="Path" d="M20.6873 7.92676C21.2021 7.92676 21.6207 8.33061 21.6306 8.83246L21.6308 8.85064V20.2574C21.6308 21.1854 20.8702 21.9394 19.9262 21.9544L19.8975 21.9546H15.159C14.6441 21.9546 14.2256 21.5508 14.2157 21.0489L14.2155 21.0308V14.4574C14.2155 14.3309 14.114 14.2277 13.9864 14.2215L13.9744 14.2212H10.0256C9.89648 14.2212 9.79105 14.3206 9.78478 14.4456L9.78449 14.4574V21.0308C9.78449 21.5349 9.37207 21.9448 8.85957 21.9545L8.841 21.9546H4.10249C3.15483 21.9546 2.38479 21.2099 2.36949 20.2855L2.36926 20.2574V8.85064C2.36926 8.34039 2.79167 7.92676 3.31274 7.92676C3.82762 7.92676 4.24616 8.33061 4.25605 8.83246L4.25623 8.85064L4.2562 20.1069H7.89748L7.89751 14.4574C7.89751 13.318 8.83134 12.3921 9.99043 12.3737L10.0256 12.3735H13.9744C15.138 12.3735 16.0834 13.2879 16.1022 14.4229L16.1025 14.4574L16.1025 20.1069H19.7437L19.7438 8.85064C19.7438 8.34647 20.1562 7.93662 20.6687 7.92693L20.6873 7.92676Z" fill="#141E28"/>
<path id="Path_2" d="M10.7984 0.460779C11.4138 -0.147557 12.5622 -0.15178 13.1848 0.444335L13.2022 0.461432L23.7089 10.3099C24.0801 10.6579 24.098 11.2314 23.7529 11.6007L23.7381 11.6162C23.3827 11.9797 22.7971 11.9971 22.4199 11.6592L22.4041 11.6447L12 1.8923L1.59591 11.6447C1.22473 11.9927 0.638804 11.9851 0.277084 11.6313L0.261934 11.6162C-0.0933831 11.2527 -0.0856337 10.679 0.275596 10.3248L0.29107 10.3099L10.7984 0.460779Z" fill="#141E28"/>
<path id="Path_3" d="M19.1078 0.773315C19.6226 0.773315 20.0412 1.17716 20.0511 1.67902L20.0512 1.6972V7.25559C20.0512 7.76583 19.6288 8.17947 19.1078 8.17947C18.5929 8.17947 18.1743 7.77562 18.1644 7.27377L18.1643 7.25559L18.1642 2.62103H17.682L17.682 5.03223C17.682 5.53641 17.2696 5.94625 16.7571 5.95594L16.7385 5.95612C16.2236 5.95612 15.8051 5.55227 15.7952 5.05041L15.795 5.03223V1.6972C15.795 1.19303 16.2074 0.783178 16.7199 0.773491L16.7385 0.773315H19.1078Z" fill="#141E28"/>
</g>
</svg>
