<svg width="22" height="22" viewBox="0 0 22 22" fill="none" xmlns="http://www.w3.org/2000/svg">
<g id="Settings Icon">
<path id="Shape" fill-rule="evenodd" clip-rule="evenodd" d="M13.0891 0.000126608L13.0742 0L8.9169 4.74106e-05L8.88663 0.000781086C8.22595 0.0241018 7.67034 0.496551 7.55619 1.13555L7.55273 1.15647L7.23196 3.38937L7.20529 3.4022L7.13487 3.43674C6.807 3.59938 6.48934 3.78218 6.1842 3.98385L6.15255 4.0049L4.01957 3.16458L4.00391 3.15858C3.37254 2.9237 2.65999 3.16722 2.31543 3.73564L0.236457 7.25472L0.225391 7.27373C-0.0978072 7.83926 0.0333491 8.55271 0.541747 8.9733L0.553744 8.98305L0.559809 8.98784L2.38061 10.3873L2.3775 10.4231C2.36174 10.6158 2.35351 10.8073 2.35351 10.9978L2.35378 11.0562L2.35471 11.1223C2.35765 11.2769 2.36601 11.4351 2.37947 11.6004L2.38142 11.624L0.559807 13.0235L0.551189 13.0304C0.0280102 13.454 -0.105245 14.1856 0.236183 14.76L2.31436 18.2777L2.32562 18.2959C2.67464 18.8508 3.37857 19.0861 4.00285 18.8535L4.01045 18.8506L6.15028 18.0079L6.17561 18.0251L6.24093 18.0684C6.5468 18.2692 6.86687 18.4507 7.19821 18.6109L7.23201 18.6271L7.55121 20.8492L7.55544 20.8757L7.56053 20.902C7.69292 21.5317 8.2541 21.9872 8.91109 21.9984L8.91858 21.9984L13.0833 21.9984L13.1136 21.9977C13.7743 21.9744 14.3299 21.5019 14.444 20.8629L14.4475 20.842L14.7682 18.609L14.795 18.5963L14.8654 18.5617C15.1932 18.3991 15.5109 18.2163 15.816 18.0146L15.8476 17.9936L17.9807 18.8339L17.9963 18.8399C18.6277 19.0748 19.3403 18.8313 19.6848 18.2628L21.7638 14.7438L21.7748 14.7248C22.1006 14.1551 21.9648 13.4355 21.4481 13.0165L21.4345 13.0057L19.6161 11.6103L19.6205 11.5558L19.626 11.4771C19.6363 11.3197 19.6419 11.162 19.6428 11.0042L19.6426 10.9509L19.6419 10.8915C19.6393 10.7328 19.6312 10.5718 19.6181 10.3991L19.6163 10.3763L21.4317 8.9818L21.4491 8.96813C21.9722 8.54452 22.1055 7.81283 21.7641 7.23849L19.6859 3.72076L19.6746 3.70256C19.3256 3.14765 18.6217 2.91239 17.9974 3.14497L17.9898 3.14784L15.8499 3.99051L15.8246 3.97342L15.7593 3.93009C15.4534 3.72924 15.1334 3.5478 14.802 3.38754L14.7682 3.37134L14.449 1.14923L14.4448 1.1228L14.4397 1.09651C14.3073 0.466813 13.7461 0.0112474 13.0891 0.000126608ZM9.22245 1.69231H12.7803L13.062 3.65352L13.0659 3.67857C13.1517 4.20345 13.4942 4.65187 13.9832 4.87958L14.0465 4.90985C14.3409 5.05279 14.6274 5.219 14.9001 5.40545L14.9222 5.42026L14.9449 5.43493C15.3934 5.71941 15.9548 5.77343 16.4511 5.57805L18.3447 4.83223L20.1202 7.83766L18.5106 9.07406L18.4902 9.09004L18.4701 9.1063C18.0645 9.43973 17.8477 9.94322 17.8879 10.4598L17.8892 10.4748L17.896 10.5631C17.9074 10.7219 17.9131 10.8645 17.9131 10.9992C17.9114 11.2862 17.8895 11.5776 17.8475 11.8667L17.845 11.8858L17.8429 11.9048C17.8148 12.1911 17.9374 12.4729 18.17 12.6514L20.1186 14.1467L18.343 17.1523L16.4494 16.4063L16.4243 16.3968C15.9136 16.2071 15.3427 16.2756 14.8962 16.58L14.8375 16.6191C14.5624 16.8005 14.271 16.9645 13.9689 17.1078L13.946 17.1189L13.9232 17.1304C13.456 17.3704 13.1347 17.8159 13.0618 18.3286L12.7777 20.3062H9.2199L8.93823 18.345L8.93434 18.3199C8.84857 17.795 8.50604 17.3466 8.01701 17.1189L7.95379 17.0886C7.65932 16.9457 7.3728 16.7795 7.10015 16.593L7.07801 16.5782L7.0553 16.5636C6.60686 16.2791 6.04549 16.2251 5.54913 16.4204L3.65547 17.1662L1.88001 14.1608L3.48963 12.9244L3.51006 12.9083C3.92908 12.5723 4.15186 12.0609 4.10978 11.5367L4.10385 11.4674C4.09017 11.2997 4.08324 11.1451 4.08324 10.9978C4.08324 10.8328 4.0915 10.6645 4.10783 10.4883L4.10983 10.4628L4.11142 10.4374C4.14009 9.91154 3.90732 9.40803 3.48582 9.08466L1.88158 7.85173L3.65715 4.84613L5.55083 5.59219L5.57589 5.60173C6.08661 5.79142 6.6575 5.72289 7.104 5.41847L7.16271 5.37935C7.43787 5.19801 7.72921 5.03399 8.03132 4.89071L8.05427 4.87959L8.077 4.86813C8.54427 4.6281 8.86551 4.18256 8.9384 3.66992L9.22245 1.69231ZM11.3916 7.13559C13.2726 7.32044 14.7603 8.77593 14.9493 10.6177C15.1141 12.2499 14.2127 13.8074 12.6973 14.5088C11.1819 15.2103 9.37943 14.9044 8.194 13.7447C7.00856 12.5849 6.69593 10.8214 7.41291 9.33876C8.12989 7.85614 9.7218 6.97425 11.3916 7.13559ZM9.4171 12.548C8.74836 11.8937 8.572 10.8989 8.97647 10.0625C9.38094 9.22613 10.279 8.72863 11.2201 8.81957C12.2812 8.92383 13.1214 9.74592 13.2281 10.7854C13.3209 11.7048 12.8124 12.5834 11.9576 12.9791C11.1027 13.3748 10.0858 13.2023 9.4171 12.548Z" fill="#141E28"/>
</g>
</svg>
